# xmcd
#
# Track frame offsets:
#	150
#	16455
#	33655
#	50510
#	64902
#	81600
#	95975
#	113957
#	125937
#	144385
#	160342
#	181202
#	198367
#	214250
#	226717
#	246877
#	261190
#	278197
#	299815
#	316842
#
# Disc length: 4443 seconds
# Revision: 0
# Processed by: cddbd v1.5.2PL0 Copyright (c) Steve Scherf et al.
# Submitted via: dBpowerAMP V12.0
#
DISCID=3f115914
DTITLE=John Denver - Country Roads Collection
DYEAR=1997
DGENRE=Rock
TTITLE0=Calypso
TTITLE1=Come And Let Me Look In Your Eyes
TTITLE2=Like A Sad Song
TTITLE3=Polka Dots And Moonbeams
TTITLE4=In The Grand Way
TTITLE5=How Can I Leave You Again
TTITLE6=Ripplin' Waters
TTITLE7=It Amazes Me
TTITLE8=Singing Skies And Dancing Waters
TTITLE9=Dearest Esmeralda
TTITLE10=Thirsty Boots
TTITLE11=I Want To Live
TTITLE12=Southwind
TTITLE13=Garden Song
TTITLE14=What's On Your Mind
TTITLE15=You're So Beautiful
TTITLE16=In My Heart
TTITLE17=The Mountain Song
TTITLE18=Song For The Life
TTITLE19=Autograph
EXTD=
EXTT0=
EXTT1=
EXTT2=
EXTT3=
EXTT4=
EXTT5=
EXTT6=
EXTT7=
EXTT8=
EXTT9=
EXTT10=
EXTT11=
EXTT12=
EXTT13=
EXTT14=
EXTT15=
EXTT16=
EXTT17=
EXTT18=
EXTT19=
PLAYORDER=
